HIERARCHY
ROOT Hips
{
	OFFSET 0.000000 100.481300 0.000000
	CHANNELS 6 Xposition Yposition Zposition Xrotation Yrotation Zrotation
	JOINT Spine
	{
		OFFSET -0.279200 12.230698 -2.892100
		CHANNELS 3 Xrotation Yrotation Zrotation
		JOINT Spine1
		{
			OFFSET -0.325700 14.269203 -3.374200
			CHANNELS 3 Xrotation Yrotation Zrotation
			JOINT Spine2
			{
				OFFSET -0.372300 16.307602 -0.352600
				CHANNELS 3 Xrotation Yrotation Zrotation
				JOINT Neck
				{
					OFFSET -0.418800 17.814194 8.416900
					CHANNELS 3 Xrotation Yrotation Zrotation
					JOINT Head
					{
						OFFSET 0.000000 7.031097 3.806800
						CHANNELS 3 Xrotation Yrotation Zrotation
						JOINT HeadTop_End
						{
							OFFSET 0.000000 24.646606 12.978600
							CHANNELS 3 Xrotation Yrotation Zrotation
							End Site
							{
								OFFSET 0.000000 27.854965 0.000000
							}
						}
					}
				}
				JOINT LeftShoulder
				{
					OFFSET 16.952999 14.495407 -7.737500
					CHANNELS 3 Xrotation Yrotation Zrotation
					JOINT LeftArm
					{
						OFFSET 9.308998 -2.777710 0.208600
						CHANNELS 3 Xrotation Yrotation Zrotation
						JOINT LeftForeArm
						{
							OFFSET 29.972298 0.000000 0.000000
							CHANNELS 3 Xrotation Yrotation Zrotation
							JOINT LeftHand
							{
								OFFSET 26.026505 0.000000 0.000000
								CHANNELS 3 Xrotation Yrotation Zrotation
								JOINT LeftHandThumb1
								{
									OFFSET 12.240501 -7.147949 9.207150
									CHANNELS 3 Xrotation Yrotation Zrotation
									JOINT LeftHandThumb2
									{
										OFFSET 4.138618 -2.389435 2.389433
										CHANNELS 3 Xrotation Yrotation Zrotation
										JOINT LeftHandThumb3
										{
											OFFSET 2.726913 -1.574387 1.574386
											CHANNELS 3 Xrotation Yrotation Zrotation
											JOINT LeftHandThumb4
											{
												OFFSET 3.941010 -2.275345 2.275342
												CHANNELS 3 Xrotation Yrotation Zrotation
												End Site
												{
													OFFSET -0.005798 5.087799 0.009903
												}
											}
										}
									}
								}
								JOINT LeftHandIndex1
								{
									OFFSET 24.424698 -1.985611 5.953459
									CHANNELS 3 Xrotation Yrotation Zrotation
									JOINT LeftHandIndex2
									{
										OFFSET 6.426697 0.000000 0.000000
										CHANNELS 3 Xrotation Yrotation Zrotation
										JOINT LeftHandIndex3
										{
											OFFSET 5.337898 0.000000 0.000000
											CHANNELS 3 Xrotation Yrotation Zrotation
											JOINT LeftHandIndex4
											{
												OFFSET 4.409401 0.000000 0.000000
												CHANNELS 3 Xrotation Yrotation Zrotation
												End Site
												{
													OFFSET 0.000000 4.409363 0.014373
												}
											}
										}
									}
								}
								JOINT LeftHandMiddle1
								{
									OFFSET 23.810104 0.000000 0.000000
									CHANNELS 3 Xrotation Yrotation Zrotation
									JOINT LeftHandMiddle2
									{
										OFFSET 7.176498 0.000000 0.000000
										CHANNELS 3 Xrotation Yrotation Zrotation
										JOINT LeftHandMiddle3
										{
											OFFSET 6.774902 0.000000 0.000000
											CHANNELS 3 Xrotation Yrotation Zrotation
											JOINT LeftHandMiddle4
											{
												OFFSET 5.403328 0.000000 0.000000
												CHANNELS 3 Xrotation Yrotation Zrotation
												End Site
												{
													OFFSET -0.027702 5.403244 0.017414
												}
											}
										}
									}
								}
								JOINT LeftHandRing1
								{
									OFFSET 22.908401 -0.839279 -6.020567
									CHANNELS 3 Xrotation Yrotation Zrotation
									JOINT LeftHandRing2
									{
										OFFSET 6.337502 0.000000 0.000000
										CHANNELS 3 Xrotation Yrotation Zrotation
										JOINT LeftHandRing3
										{
											OFFSET 5.779297 0.000000 0.000000
											CHANNELS 3 Xrotation Yrotation Zrotation
											JOINT LeftHandRing4
											{
												OFFSET 4.965698 0.000000 0.000000
												CHANNELS 3 Xrotation Yrotation Zrotation
												End Site
												{
													OFFSET 0.000000 4.965668 0.016186
												}
											}
										}
									}
								}
								JOINT LeftHandPinky1
								{
									OFFSET 20.037003 -1.530319 -10.950146
									CHANNELS 3 Xrotation Yrotation Zrotation
									JOINT LeftHandPinky2
									{
										OFFSET 5.254700 0.000000 0.000000
										CHANNELS 3 Xrotation Yrotation Zrotation
										JOINT LeftHandPinky3
										{
											OFFSET 4.810204 0.000000 0.000000
											CHANNELS 3 Xrotation Yrotation Zrotation
											JOINT LeftHandPinky4
											{
												OFFSET 3.647202 0.000000 0.000000
												CHANNELS 3 Xrotation Yrotation Zrotation
												End Site
												{
													OFFSET 0.000000 3.647186 0.011889
												}
											}
										}
									}
								}
							}
						}
					}
				}
				JOINT RightShoulder
				{
					OFFSET -15.141001 14.495407 -7.737500
					CHANNELS 3 Xrotation Yrotation Zrotation
					JOINT RightArm
					{
						OFFSET -9.308998 -2.777710 0.208500
						CHANNELS 3 Xrotation Yrotation Zrotation
						JOINT RightForeArm
						{
							OFFSET -29.972300 0.000000 0.000000
							CHANNELS 3 Xrotation Yrotation Zrotation
							JOINT RightHand
							{
								OFFSET -26.026505 0.000000 0.000000
								CHANNELS 3 Xrotation Yrotation Zrotation
								JOINT RightHandThumb1
								{
									OFFSET -12.240601 -7.148026 9.207092
									CHANNELS 3 Xrotation Yrotation Zrotation
									JOINT RightHandThumb2
									{
										OFFSET -4.138618 -2.389435 2.389433
										CHANNELS 3 Xrotation Yrotation Zrotation
										JOINT RightHandThumb3
										{
											OFFSET -2.726974 -1.574417 1.574421
											CHANNELS 3 Xrotation Yrotation Zrotation
											JOINT RightHandThumb4
											{
												OFFSET -3.941010 -2.275345 2.275343
												CHANNELS 3 Xrotation Yrotation Zrotation
												End Site
												{
													OFFSET 0.005814 5.087799 0.009927
												}
											}
										}
									}
								}
								JOINT RightHandIndex1
								{
									OFFSET -24.424698 -1.985657 5.953444
									CHANNELS 3 Xrotation Yrotation Zrotation
									JOINT RightHandIndex2
									{
										OFFSET -6.426697 0.000000 0.000000
										CHANNELS 3 Xrotation Yrotation Zrotation
										JOINT RightHandIndex3
										{
											OFFSET -5.337898 0.000000 0.000000
											CHANNELS 3 Xrotation Yrotation Zrotation
											JOINT RightHandIndex4
											{
												OFFSET -4.409401 0.000000 0.000000
												CHANNELS 3 Xrotation Yrotation Zrotation
												End Site
												{
													OFFSET 0.000000 4.409363 0.014408
												}
											}
										}
									}
								}
								JOINT RightHandMiddle1
								{
									OFFSET -23.810097 0.000000 0.000000
									CHANNELS 3 Xrotation Yrotation Zrotation
									JOINT RightHandMiddle2
									{
										OFFSET -7.176498 0.000000 0.000000
										CHANNELS 3 Xrotation Yrotation Zrotation
										JOINT RightHandMiddle3
										{
											OFFSET -6.774902 0.000000 0.000000
											CHANNELS 3 Xrotation Yrotation Zrotation
											JOINT RightHandMiddle4
											{
												OFFSET -5.403328 0.000000 0.000000
												CHANNELS 3 Xrotation Yrotation Zrotation
												End Site
												{
													OFFSET 0.027702 5.403244 0.017457
												}
											}
										}
									}
								}
								JOINT RightHandRing1
								{
									OFFSET -22.908302 -0.839325 -6.020576
									CHANNELS 3 Xrotation Yrotation Zrotation
									JOINT RightHandRing2
									{
										OFFSET -6.337502 0.000000 0.000000
										CHANNELS 3 Xrotation Yrotation Zrotation
										JOINT RightHandRing3
										{
											OFFSET -5.779297 0.000000 0.000000
											CHANNELS 3 Xrotation Yrotation Zrotation
											JOINT RightHandRing4
											{
												OFFSET -4.965698 0.000000 0.000000
												CHANNELS 3 Xrotation Yrotation Zrotation
												End Site
												{
													OFFSET 0.000000 4.965668 0.016226
												}
											}
										}
									}
								}
								JOINT RightHandPinky1
								{
									OFFSET -20.037003 -1.530334 -10.950259
									CHANNELS 3 Xrotation Yrotation Zrotation
									JOINT RightHandPinky2
									{
										OFFSET -5.254700 0.000000 0.000000
										CHANNELS 3 Xrotation Yrotation Zrotation
										JOINT RightHandPinky3
										{
											OFFSET -4.810204 0.000000 0.000000
											CHANNELS 3 Xrotation Yrotation Zrotation
											JOINT RightHandPinky4
											{
												OFFSET -3.647202 0.000000 0.000000
												CHANNELS 3 Xrotation Yrotation Zrotation
												End Site
												{
													OFFSET 0.000000 3.647186 0.011917
												}
											}
										}
									}
								}
							}
						}
					}
				}
			}
		}
	}
	JOINT LeftUpLeg
	{
		OFFSET 15.427100 -6.655098 0.678600
		CHANNELS 3 Xrotation Yrotation Zrotation
		JOINT LeftLeg
		{
			OFFSET 4.081073 -39.591068 13.024000
			CHANNELS 3 Xrotation Yrotation Zrotation
			JOINT LeftFoot
			{
				OFFSET -4.081074 -37.707932 -15.979700
				CHANNELS 3 Xrotation Yrotation Zrotation
				JOINT LeftToeBase
				{
					OFFSET 5.346399 -15.068900 20.645000
					CHANNELS 3 Xrotation Yrotation Zrotation
					JOINT LeftToe_End
					{
						OFFSET 2.754700 0.931300 11.300900
						CHANNELS 3 Xrotation Yrotation Zrotation
						End Site
						{
							OFFSET 0.000000 11.669021 0.000000
						}
					}
				}
			}
		}
	}
	JOINT RightUpLeg
	{
		OFFSET -15.569500 -6.655098 0.678600
		CHANNELS 3 Xrotation Yrotation Zrotation
		JOINT RightLeg
		{
			OFFSET -4.081825 -39.591045 13.023800
			CHANNELS 3 Xrotation Yrotation Zrotation
			JOINT RightFoot
			{
				OFFSET 4.081824 -37.707954 -15.979600
				CHANNELS 3 Xrotation Yrotation Zrotation
				JOINT RightToeBase
				{
					OFFSET -5.346400 -15.068900 20.645000
					CHANNELS 3 Xrotation Yrotation Zrotation
					JOINT RightToe_End
					{
						OFFSET -2.754700 0.931300 11.300900
						CHANNELS 3 Xrotation Yrotation Zrotation
						End Site
						{
							OFFSET 0.000000 11.669021 0.000000
						}
					}
				}
			}
		}
	}
}
MOTION
Frames: 4
Frame Time: 0.033333
-0.178667 75.018929 -2.314602 4.564385 16.703900 -11.578075 -1.154971 -1.472096 1.809130 -2.435822 -2.852143 -0.873015 -2.435820 -2.852147 -0.873014 5.734752 18.254994 -0.301842 7.499281 39.902334 -23.386648 -0.000000 0.000000 0.000001 4.407228 -8.868800 -19.930608 1.470762 8.534125 -32.040735 44.062964 -15.955520 -10.524654 35.886046 -8.947522 14.751612 -6.896638 -1.280035 10.377018 2.321130 6.714510 2.170923 0.000002 0.000003 -0.000004 0.000001 -0.000002 -0.000001 -0.023974 -0.779296 -8.680750 0.067995 0.764272 -16.879057 0.000006 -0.000001 0.000005 -0.000000 -0.000000 0.000001 -0.137395 0.619956 -12.274839 -0.085873 -0.354736 -10.511361 0.000005 0.000001 -0.000001 0.000000 0.000000 -0.000001 -0.092242 7.427046 -16.709773 -0.123204 -1.634665 -13.116374 -0.000001 0.000002 0.000000 0.000002 0.000000 -0.000000 -0.102778 13.410953 -11.521758 -0.510053 -5.458649 -22.584478 -0.000001 0.000000 -0.000001 0.000003 0.000000 0.000001 0.822473 -2.357126 14.288197 9.970590 -20.719985 41.755275 38.647335 24.515634 11.063698 33.227873 9.936120 -3.039248 -11.704842 6.638685 13.043695 1.802587 -5.540935 -2.039521 0.000003 0.000003 0.000022 -0.000001 0.000001 0.000000 -0.373814 6.502823 17.280879 0.120552 -1.119666 16.859811 -0.000001 -0.000001 0.000001 0.000000 0.000000 -0.000000 -1.382071 -2.049216 27.678117 -0.632527 1.713738 29.211688 0.000002 -0.000003 0.000011 -0.000002 -0.000002 -0.000000 2.122387 -10.589557 36.061322 -0.526120 2.927518 25.958206 0.000003 -0.000000 0.000002 0.000003 0.000001 -0.000002 3.372757 -19.285970 24.819994 -0.732814 6.665095 22.274073 0.000003 0.000000 -0.000002 0.000002 0.000000 0.000000 -41.311463 4.311183 25.089016 94.984832 18.277031 -5.449149 -4.404775 1.112980 1.622965 -8.593589 0.138692 -14.395452 -0.000000 0.000002 -0.000000 -47.760040 -3.612753 14.899868 52.856601 -17.023265 -2.780116 -10.003545 -0.706430 1.905322 0.093144 -2.348407 1.748430 0.000000 -0.000000 -0.000000 
4.481035 75.941689 -2.279033 4.441185 15.695191 -10.646558 -1.237921 -1.209410 1.253055 -2.565827 -2.462118 -1.112660 -2.565828 -2.462118 -1.112656 5.704297 18.487415 -0.299178 7.501254 40.120135 -23.175875 -0.000000 0.000001 0.000001 4.453440 -8.478502 -19.626029 1.854518 9.446661 -32.363574 43.917382 -15.859129 -10.501543 35.831446 -9.033580 13.930462 -6.756712 -1.269143 10.124152 2.289746 6.643337 2.163254 0.000004 0.000003 0.000001 0.000000 -0.000001 0.000000 -0.025217 -0.787344 -8.762472 0.065584 0.756310 -16.947311 0.000008 -0.000001 0.000004 0.000003 0.000000 -0.000001 -0.140895 0.604006 -12.440740 -0.087274 -0.362096 -10.579744 0.000003 0.000001 -0.000000 0.000003 0.000000 -0.000000 -0.247055 7.437583 -16.897628 -0.124143 -1.638731 -13.185043 -0.000000 0.000002 0.000004 0.000002 -0.000000 -0.000001 -0.258863 13.404805 -11.811271 -0.510605 -5.460004 -22.653294 -0.000000 0.000001 -0.000001 0.000002 0.000000 0.000001 0.827574 -2.272584 14.450751 10.207254 -20.818051 42.001664 38.575051 24.590462 10.959388 33.076489 9.840901 -2.986852 -11.704841 6.638684 13.043693 1.802590 -5.540934 -2.039521 0.000004 0.000002 0.000021 -0.000000 -0.000000 0.000000 -0.373814 6.502822 17.280879 0.120550 -1.119666 16.859808 -0.000001 0.000001 -0.000002 0.000000 0.000001 -0.000002 -1.382065 -2.049216 27.678107 -0.632523 1.713741 29.211677 -0.000002 -0.000002 0.000009 0.000000 -0.000003 0.000002 2.100936 -10.560880 36.210149 -0.538847 2.953428 26.293788 0.000001 0.000000 0.000002 -0.000000 -0.000000 -0.000002 3.358087 -19.256410 24.961816 -0.741562 6.686178 22.572392 -0.000003 0.000000 0.000000 0.000002 0.000000 -0.000001 -42.806588 -0.034157 27.791428 91.790455 22.026774 -3.733351 -7.329079 1.052743 2.371323 -8.803193 -4.983848 -8.146433 -0.000001 0.000000 -0.000005 -46.485325 -1.279583 11.761957 52.603754 -14.618230 -3.534155 -10.473553 -1.513318 5.357463 0.092514 -2.348422 1.747124 0.000000 -0.000000 0.000000 
9.169769 76.547691 -2.277059 4.365679 14.698572 -9.904771 -1.351730 -0.961007 0.750309 -2.762588 -2.011852 -1.260965 -2.762589 -2.011851 -1.260963 5.729956 18.716720 -0.000674 7.677542 40.414448 -23.143107 -0.000001 0.000000 0.000000 4.492755 -8.025123 -19.166558 2.243925 10.050818 -32.817601 44.036480 -15.893080 -10.407663 35.963600 -9.267876 13.148641 -6.366977 -1.242060 9.420169 2.202340 6.445246 2.141714 0.000007 0.000003 -0.000003 -0.000000 0.000000 0.000000 -0.028719 -0.809736 -8.989974 0.058794 0.734150 -17.137211 0.000007 -0.000001 0.000004 -0.000000 0.000000 -0.000000 -0.150874 0.559676 -12.902518 -0.091103 -0.382582 -10.770039 0.000006 0.000001 -0.000001 0.000001 -0.000001 0.000001 -0.677301 7.472427 -17.420917 -0.126817 -1.650069 -13.376178 0.000000 0.000003 0.000003 0.000001 0.000000 0.000002 -0.693085 13.396170 -12.617701 -0.512188 -5.463753 -22.844835 -0.000002 0.000001 -0.000003 -0.000001 -0.000001 0.000002 0.847499 -2.199340 14.907829 10.390574 -21.257179 41.643049 38.659810 24.721573 10.940384 32.914422 9.741206 -3.114086 -11.704846 6.638684 13.043693 1.802595 -5.540934 -2.039521 0.000001 0.000001 0.000021 -0.000001 -0.000000 -0.000000 -0.373817 6.502823 17.280879 0.120552 -1.119666 16.859811 0.000004 0.000001 0.000001 0.000000 0.000000 -0.000001 -1.382074 -2.049210 27.678121 -0.632525 1.713764 29.211698 -0.000001 -0.000003 0.000010 0.000000 0.000000 -0.000001 2.045850 -10.488438 36.599162 -0.573259 3.021607 27.181691 -0.000000 -0.000000 -0.000000 0.000001 0.000000 -0.000002 3.320065 -19.181234 25.333288 -0.765422 6.742108 23.367173 -0.000003 0.000001 0.000000 -0.000002 0.000001 -0.000000 -43.932832 -2.038327 30.994172 84.969876 23.332406 -1.246411 -10.305921 0.681259 3.965836 -8.830668 -9.194210 -3.110974 0.000000 -0.000003 0.000002 -45.229905 0.934463 8.551217 52.212565 -12.299113 -4.172359 -10.826174 -2.253123 8.790075 0.090709 -2.348468 1.743363 -0.000000 -0.000000 -0.000000 
13.682374 77.036423 -2.228987 4.432075 13.694843 -9.221595 -1.500485 -0.742285 0.215143 -3.032166 -1.520467 -1.273657 -3.032166 -1.520463 -1.273657 5.641156 19.001844 0.259575 7.830477 40.724419 -22.999709 0.000002 -0.000002 -0.000001 4.551813 -7.465930 -18.744740 2.515920 10.267584 -33.275831 44.401690 -15.988918 -10.290117 36.399738 -9.572359 12.704112 -5.772400 -1.209955 8.346927 2.069042 6.143391 2.108286 0.000007 0.000003 0.000001 0.000001 0.000001 0.000001 -0.034206 -0.843800 -9.336675 0.048318 0.700430 -17.426727 0.000003 -0.000001 0.000004 -0.000002 -0.000001 -0.000001 -0.166742 0.492294 -13.606368 -0.097110 -0.413762 -11.060126 0.000004 0.000002 0.000000 -0.000001 -0.000000 0.000000 -1.330970 7.541087 -18.219381 -0.130960 -1.667318 -13.667546 -0.000002 0.000003 0.000000 -0.000001 -0.000000 0.000001 -1.353695 13.407024 -13.848361 -0.514624 -5.469504 -23.136736 0.000002 0.000001 -0.000001 0.000002 -0.000000 -0.000001 0.874128 -2.143592 15.493456 10.400089 -22.074434 40.566870 38.856499 25.186084 11.251862 32.772928 9.158330 -3.002067 -11.704842 6.638683 13.043693 1.802591 -5.540934 -2.039520 0.000000 0.000003 0.000021 -0.000004 -0.000000 0.000001 -0.373815 6.502822 17.280879 0.120550 -1.119666 16.859806 -0.000001 0.000001 -0.000001 -0.000000 0.000001 -0.000001 -1.382074 -2.049210 27.678122 -0.632525 1.713749 29.211691 -0.000000 -0.000001 0.000005 0.000001 0.000003 -0.000003 1.970886 -10.392687 37.142326 -0.623955 3.117557 28.443618 0.000005 -0.000001 0.000001 0.000002 0.000000 -0.000001 3.267585 -19.080866 25.853176 -0.801064 6.821818 24.508349 -0.000000 0.000000 -0.000001 -0.000003 0.000000 -0.000002 -44.833129 -1.567952 34.052154 75.477852 22.936498 1.924502 -13.915827 -0.120989 6.891192 -7.010125 -11.748902 3.378601 -0.000001 0.000000 -0.000000 -43.926234 3.043781 5.339548 51.415735 -10.191414 -4.732437 -10.997903 -2.832713 12.057581 0.087869 -2.348538 1.737405 0.000000 -0.000000 -0.000000 
